<svg width="52" height="77" viewBox="0 0 52 77" fill="none" xmlns="http://www.w3.org/2000/svg">
<g clip-path="url(#clip0)">
<path d="M12.8333 77.0002C19.9173 77.0002 25.6667 71.2508 25.6667 64.1668V51.3335H12.8333C5.74933 51.3335 0 57.0828 0 64.1668C0 71.2508 5.74933 77.0002 12.8333 77.0002Z" fill="#0ACF83"/>
<path d="M0 38.4998C0 31.4158 5.74933 25.6665 12.8333 25.6665H25.6667V51.3332H12.8333C5.74933 51.3332 0 45.5838 0 38.4998Z" fill="#A259FF"/>
<path d="M0 12.8333C0 5.74933 5.74933 0 12.8333 0H25.6667V25.6667H12.8333C5.74933 25.6667 0 19.9173 0 12.8333Z" fill="#F24E1E"/>
<path d="M25.6666 0H38.5C45.584 0 51.3333 5.74933 51.3333 12.8333C51.3333 19.9173 45.584 25.6667 38.5 25.6667H25.6666V0Z" fill="#FF7262"/>
<path d="M51.3333 38.4998C51.3333 45.5838 45.584 51.3332 38.5 51.3332C31.416 51.3332 25.6666 45.5838 25.6666 38.4998C25.6666 31.4158 31.416 25.6665 38.5 25.6665C45.584 25.6665 51.3333 31.4158 51.3333 38.4998Z" fill="#1ABCFE"/>
</g>
<defs>
<clipPath id="clip0">
<rect width="51.3333" height="77" fill="white"/>
</clipPath>
</defs>
</svg>
