<svg width="65" height="77" viewBox="0 0 65 77" fill="none" xmlns="http://www.w3.org/2000/svg">
<g clip-path="url(#clip0)">
<path d="M3.31911 72.7716C2.00099 72.7716 1.61776 72.0041 1.61776 70.8542C1.61776 70.471 1.66588 70.0386 1.72515 69.5832C2.0139 67.5946 2.71881 66.4568 4.42015 66.4568C5.57085 66.4568 6.13188 66.9715 6.13188 67.9061V68.3618H7.27346C7.28612 68.3618 7.28612 67.9424 7.28612 67.8469C7.28612 66.4811 6.45913 65.1858 4.42193 65.1858C1.65373 65.1858 0.515444 66.6896 0.0959967 69.6376C0.0359671 70.0333 0 70.4026 0 70.7967C0 72.5343 0.683628 74.1148 3.12787 74.1148C4.98499 74.1148 6.08807 73.2093 6.73471 72.0948L5.64405 71.3603C4.93737 72.475 4.1699 72.7716 3.31911 72.7716V72.7716ZM10.8089 67.2833C8.59158 67.2833 7.63364 68.4211 7.31019 70.6855C7.27221 70.9476 7.2519 71.2119 7.2494 71.4768C7.2494 72.9382 7.93252 74.1014 9.82535 74.1014C12.0426 74.1014 13.0135 72.9147 13.337 70.6855C13.3729 70.3983 13.397 70.1346 13.397 69.8712C13.3975 68.3856 12.6908 67.2833 10.8089 67.2833V67.2833ZM11.7316 70.6862C11.4917 72.3283 10.9771 72.8316 10.0057 72.8316C9.22733 72.8316 8.84411 72.5079 8.84411 71.5373C8.84411 71.2974 8.86842 71.0102 8.91604 70.6862C9.15591 69.0568 9.63513 68.5536 10.6176 68.5536C11.4087 68.5536 11.8035 68.877 11.8035 69.8595C11.8035 70.0991 11.7792 70.375 11.7316 70.6862ZM18.9706 65.3049L18.5996 67.5047C18.5757 67.6959 18.5879 67.6323 18.6603 67.8122C18.3128 67.5488 17.6892 67.3745 17.2698 67.3745C15.2804 67.3745 14.1665 68.2749 13.8073 70.7914C13.7654 71.057 13.7453 71.3256 13.7473 71.5945C13.7473 73.4286 14.8255 74.1122 16.2751 74.1122C16.8871 74.1122 17.4858 74.1249 17.9527 73.73L18.0719 74.4755H19.2226L20.5646 65.3049H18.9706V65.3049ZM17.8323 72.4836C17.2936 72.8063 16.7667 72.8792 16.4433 72.8792C15.5684 72.8792 15.3288 72.4236 15.3288 71.6931C15.3288 71.4172 15.3648 71.0945 15.4132 70.746C15.6882 68.841 16.2997 68.5049 17.0907 68.5049C17.6054 68.5049 18.0005 68.5893 18.3729 68.7934L17.8323 72.4836V72.4836ZM24.064 67.2833C21.8705 67.2833 20.8409 68.3251 20.4929 70.6855C20.4564 70.9735 20.4324 71.2493 20.4324 71.5127C20.4324 73.1305 21.2596 74.1014 23.0802 74.1014C24.4944 74.1014 25.5498 73.5137 26.1126 72.4352L24.9022 71.9438C24.5551 72.4707 24.0878 72.8303 23.2608 72.8303C22.3743 72.8303 22.0147 72.5917 22.0147 71.8007C22.0147 71.6447 22.0268 71.418 22.0509 71.418H26.376C26.4368 70.8066 26.5078 70.3745 26.5078 70.016C26.5078 68.8185 26.0528 67.2831 24.064 67.2831V67.2833ZM24.8905 70.1959H22.2543C22.5184 69.5844 22.9609 68.6382 23.872 68.6382C24.5787 68.6382 24.9267 69.0513 24.9267 69.7582C24.926 69.878 24.9151 70.1959 24.8905 70.1959V70.1959ZM31.1191 67.1389L31.2628 65.9163H27.8831L27.74 67.1389H28.6265L27.6686 73.2526H26.7808L26.6379 74.4755H30.0168L30.1612 73.2526H29.2739L30.2321 67.1389H31.1191ZM37.9858 68.973L38.4177 67.7504H37.2553L36.4172 67.9234C35.9496 67.6245 35.3144 67.4001 34.7159 67.4001C33.0016 67.4001 31.5404 68.2278 31.5404 70.1095C31.5404 70.6374 31.7319 71.0634 31.9591 71.3514C31.6004 71.5426 31.2886 71.863 31.2886 72.2951C31.2886 72.4866 31.36 72.6827 31.5044 72.862C30.7848 73.2941 30.3428 74.0102 30.3428 74.8483C30.3428 76.4668 32.032 76.8121 33.3261 76.8121C34.9555 76.8121 36.8972 76.4397 36.8972 74.3665C36.8972 73.6599 36.4539 73.1077 35.1718 72.8681L32.8592 72.436C32.5958 72.3876 32.5358 72.3038 32.5358 72.1839C32.5358 72.0041 32.6447 71.9089 32.8235 71.9089L32.9796 71.9327C33.2911 72.0044 33.6508 72.0408 34.0218 72.0408C35.688 72.0408 37.1735 71.3215 37.1735 69.4522C37.1735 69.1883 37.1259 69.0097 37.0061 68.7217C37.2095 68.818 37.4737 68.9738 37.5806 68.9738H37.9858V68.973V68.973ZM34.6913 73.9332C35.1462 74.0175 35.3017 74.1849 35.3017 74.4846C35.3017 75.4554 34.2592 75.5752 33.5046 75.5752C32.3542 75.5752 31.9231 75.3002 31.9231 74.6882C31.9231 74.1487 32.0784 73.8977 32.4385 73.5137L34.6913 73.9332ZM34.1991 70.7944C33.5041 70.7944 33.1206 70.5431 33.1206 69.9434C33.1206 69.0568 33.6361 68.5414 34.5348 68.5414C35.2538 68.5414 35.6016 68.841 35.6016 69.4274C35.6016 70.3144 35.0978 70.7944 34.1991 70.7944V70.7944ZM42.2429 67.2833C41.5716 67.2833 40.9731 67.6126 40.2297 68.1992L40.1221 67.7504H38.8034L37.881 74.4752H39.4747L40.1699 69.3755C40.6375 69.088 41.2122 68.6706 41.7036 68.6706C42.3024 68.6706 42.5187 68.9596 42.5187 69.5105C42.5187 69.6424 42.506 70.0333 42.482 70.1769L41.8956 74.4752H43.4895L44.0759 70.1419C44.1002 69.9393 44.124 69.6052 44.124 69.414C44.1248 68.2742 43.5848 67.2833 42.2429 67.2833V67.2833ZM47.1516 72.7906L47.1638 72.6259L47.8583 67.7504H45.2099L45.043 68.973H46.2046C46.1086 68.973 46.0488 69.0801 46.0371 69.1766L45.5577 72.4238C45.5338 72.5801 45.5222 72.9053 45.5222 73.0363C45.5222 73.8749 45.9771 74.4755 46.9112 74.4755H47.7263L47.9062 73.2526H47.3912C47.2109 73.2526 47.1516 72.9342 47.1516 72.7906V72.7906ZM48.1817 65.3049H46.624C46.528 65.3049 46.528 64.952 46.5164 65.0718L46.3 66.7947C46.2876 66.9031 46.2876 67.1392 46.3836 67.1392H47.9421C48.0381 67.1392 48.0381 66.7202 48.0498 66.6113L48.2661 65.2816C48.2782 65.1617 48.2782 65.3049 48.1817 65.3049ZM51.4317 72.8314C51.0368 72.8314 50.8448 72.6634 50.8448 72.3045L50.857 72.2799L51.3603 68.973H53.1814L53.7323 67.7504H51.5277L51.8988 65.0597L50.222 65.5959L49.9218 67.7504H48.9515L48.7841 68.973H49.9102C49.8025 69.5844 49.6944 69.1878 49.6827 69.3081L49.2511 72.2078C49.2273 72.34 49.2273 72.4357 49.2273 72.555C49.2273 73.6936 50.066 74.1196 51.0735 74.1196C52.0077 74.1196 52.7627 73.8468 53.3504 73.3547L52.607 72.4403C52.2346 72.6675 51.9834 72.8314 51.4317 72.8314V72.8314ZM57.2794 67.2833C55.0867 67.2833 54.0563 68.3251 53.7085 70.6855C53.6725 70.9735 53.6485 71.2493 53.6485 71.5127C53.6485 73.1305 54.4752 74.1014 56.2964 74.1014C57.7105 74.1014 58.7659 73.5137 59.3282 72.4352L58.1183 71.9438C57.7713 72.4707 57.3034 72.8303 56.4762 72.8303C55.5902 72.8303 55.23 72.5917 55.23 71.8007C55.23 71.6447 55.2429 71.418 55.267 71.418H59.5924C59.6522 70.8066 59.7241 70.3745 59.7241 70.016C59.7241 68.8185 59.269 67.2831 57.2794 67.2831V67.2833ZM58.1066 70.1959H55.4704C55.7338 69.5844 56.1766 68.6382 57.0882 68.6382C57.7948 68.6382 58.1428 69.0513 58.1428 69.7582C58.1421 69.878 58.1304 70.1959 58.1066 70.1959V70.1959ZM64.1342 67.2831C63.5589 67.2831 63.0197 67.6128 62.4802 68.127L62.3844 67.7504H61.0668L60.1438 74.4752H61.7497L62.4564 69.2676C62.8761 69.0166 63.3553 68.802 63.8107 68.802C64.0987 68.802 64.3738 68.7562 64.6372 68.7919L64.8421 67.4026C64.6012 67.3547 64.3616 67.2833 64.1342 67.2833V67.2831ZM23.4394 60.4881C19.8123 58.9202 16.4182 54.9354 16.4101 50.8582C16.4002 46.413 19.2173 42.639 22.7211 40.1588C22.2999 41.7502 22.0701 43.2059 23.1137 44.6294C24.0838 45.9528 25.7828 46.5959 27.3872 46.2469C31.1359 45.4262 31.3078 41.3052 29.0855 38.9042C26.8882 36.5266 24.7626 33.841 25.599 30.393C26.0176 28.6645 27.0789 27.0455 28.4234 25.8882C27.39 28.604 30.3266 31.2823 32.2615 32.6163C35.6178 34.9309 39.3004 36.6801 42.3865 39.3933C45.6326 42.2449 48.0298 46.1005 47.5457 50.5723C47.0212 55.4192 43.1696 58.7903 38.8495 60.4921C47.9786 58.4772 57.4113 51.3919 57.6046 41.2674C57.7647 32.938 52.0507 26.5278 44.9726 22.8579L44.6028 22.656C44.797 23.1274 44.8606 23.5283 44.8533 23.8872C44.9166 23.6225 44.9596 23.3505 44.9718 23.0699C44.9701 23.4033 44.9265 23.7351 44.8421 24.0577L44.8533 23.8872C44.7482 24.3294 44.5711 24.7514 44.3292 25.1362L44.433 25.0245C43.021 27.3667 39.1981 27.8753 37.3095 25.45C34.2736 21.5489 37.3731 17.3427 37.8067 13.2116C38.3495 8.03409 35.1026 3.00781 31.0768 0C33.2941 3.58683 30.373 8.33221 28.0358 10.9852C25.7697 13.5568 23.0136 15.7039 20.5119 18.0405C17.8245 20.5501 15.2409 23.1937 13.032 26.1392C8.61412 32.0348 5.9095 39.4496 7.89706 46.8046C9.88335 54.1546 16.25 58.8333 23.4397 60.4878L23.4394 60.4881Z" fill="#EE4323"/>
</g>
<defs>
<clipPath id="clip0">
<rect width="64.8421" height="77" fill="white"/>
</clipPath>
</defs>
</svg>
