<svg width="75" height="77" viewBox="0 0 75 77" fill="none" xmlns="http://www.w3.org/2000/svg">
<g clip-path="url(#clip0)">
<path d="M74.9578 17.3892C74.9856 17.4916 75 17.5972 75 17.7033V34.2023C75 34.6334 74.7686 35.0315 74.3927 35.2459L60.4834 43.2192V59.0217C60.4835 59.2331 60.4277 59.4409 60.3216 59.6241C60.2156 59.8073 60.0631 59.9596 59.8793 60.0656L30.8437 76.706C30.7772 76.7434 30.7049 76.7673 30.6322 76.7932C30.605 76.802 30.5795 76.8186 30.5508 76.8262C30.3478 76.8794 30.1344 76.8794 29.9314 76.8262C29.898 76.8174 29.8679 76.7991 29.8362 76.7871C29.7697 76.7629 29.7003 76.7419 29.637 76.706L0.607324 60.0653C0.422854 59.9599 0.269573 59.8079 0.162944 59.6247C0.0563146 59.4414 0.00010997 59.2335 0 59.0217L0 9.5247C0 9.4162 0.0152344 9.3109 0.0421875 9.20882C0.0512695 9.17411 0.0723633 9.14261 0.084668 9.1079C0.107227 9.0449 0.128613 8.98015 0.161719 8.92153C0.184277 8.88245 0.217383 8.85095 0.244629 8.81478C0.279492 8.76665 0.311133 8.71707 0.351855 8.67478C0.386719 8.64036 0.432129 8.6147 0.471387 8.58465C0.515332 8.54849 0.554297 8.5094 0.604102 8.48082H0.605566L15.121 0.160738C15.3048 0.0554268 15.5132 0 15.7252 0C15.9373 0 16.1457 0.0554268 16.3295 0.160738L30.8449 8.48082H30.8479C30.8962 8.51115 30.9372 8.54849 30.9809 8.5832C31.0201 8.61324 31.0641 8.64036 31.0986 8.67361C31.1411 8.71707 31.1713 8.76695 31.2073 8.81478C31.2331 8.85095 31.268 8.88245 31.2891 8.92153C31.3236 8.98161 31.3433 9.0449 31.3676 9.1082C31.3796 9.14261 31.4007 9.17411 31.4098 9.21028C31.4376 9.31265 31.452 9.41853 31.4522 9.5247V40.4396L43.5478 33.5058V17.7019C43.5478 17.5969 43.563 17.4898 43.5902 17.3892C43.6008 17.353 43.6204 17.3215 43.6324 17.2871C43.6567 17.2238 43.6778 17.1588 43.7109 17.1004C43.7335 17.0614 43.7666 17.0299 43.7927 16.9937C43.8287 16.9456 43.8589 16.896 43.9011 16.8537C43.9362 16.8193 43.9799 16.7936 44.0191 16.7636C44.0646 16.7274 44.1038 16.6883 44.1521 16.6597H44.1536L58.6705 8.33965C58.8543 8.2342 59.0626 8.17869 59.2748 8.17869C59.4869 8.17869 59.6952 8.2342 59.879 8.33965L74.3944 16.6597C74.4457 16.6898 74.485 16.7274 74.5304 16.7618C74.5679 16.7922 74.6118 16.8193 74.6467 16.8522C74.6889 16.896 74.719 16.9456 74.7551 16.9937C74.7826 17.0299 74.8157 17.0614 74.8371 17.1004C74.8717 17.1588 74.8913 17.2238 74.9153 17.2871C74.9291 17.3215 74.9487 17.353 74.9578 17.3892V17.3892ZM72.5804 33.5061V19.7861L67.5006 22.6972L60.4831 26.7199V40.4399L72.5818 33.5061H72.5804V33.5061ZM58.0649 58.3255V44.5959L51.162 48.5208L31.4508 59.7208V73.5791L58.0649 58.3249V58.3255ZM2.41963 11.6072V58.3255L29.0309 73.5779V59.7223L15.1289 51.8893L15.1245 51.8864L15.1187 51.8834C15.0718 51.8563 15.0322 51.8172 14.9886 51.7843C14.9505 51.7539 14.9068 51.73 14.8737 51.6968L14.8708 51.6924C14.8315 51.6548 14.8043 51.6081 14.7712 51.5661C14.7407 51.5253 14.7047 51.4909 14.6804 51.4489L14.6789 51.4442C14.6517 51.3993 14.635 51.345 14.6153 51.294C14.5957 51.2488 14.5702 51.2065 14.5579 51.1587V51.1572C14.543 51.1 14.54 51.0397 14.5339 50.981C14.528 50.9361 14.5157 50.8909 14.5157 50.8457V18.5413L7.49941 14.5169L2.41963 11.6089V11.6072ZM15.7269 2.59382L3.63252 9.5247L15.7239 16.4553L27.8165 9.52295L15.7239 2.59382H15.7269ZM22.0163 45.8474L29.0323 41.8265V11.6072L23.9531 14.5186L16.9351 18.541V48.76L22.0163 45.8474V45.8474ZM59.2746 10.7727L47.182 17.7033L59.2746 24.6342L71.3657 17.7019L59.2749 10.7727H59.2746ZM58.0646 26.7199L51.0472 22.6972L45.9677 19.7861V33.5061L52.9837 37.5273L58.0649 40.4399V26.7199H58.0646ZM30.2394 57.6383L47.9766 47.5572L56.843 42.5195L44.7592 35.5933L30.8464 43.5674L18.1661 50.8352L30.2394 57.6383Z" fill="#FF2D20"/>
</g>
<defs>
<clipPath id="clip0">
<rect width="75" height="77" fill="white"/>
</clipPath>
</defs>
</svg>
