<svg width="39" height="77" viewBox="0 0 39 77" fill="none" xmlns="http://www.w3.org/2000/svg">
<g clip-path="url(#clip0)">
<path d="M2.25965 21.3426C2.57842 21.3426 2.90227 21.2748 3.21012 21.1317L36.9692 5.43465C38.0999 4.90881 38.5903 3.56602 38.0645 2.43539C37.539 1.30476 36.1957 0.814355 35.0654 1.34005L1.30665 17.0371C0.175721 17.5628 -0.314687 18.9056 0.211156 20.0364C0.593614 20.8589 1.40877 21.3426 2.2598 21.3426H2.25965ZM35.0655 10.9359L1.30665 26.6327C0.175721 27.1584 -0.314687 28.501 0.211156 29.6316C0.593465 30.4544 1.40847 30.9381 2.2598 30.9381C2.57857 30.9381 2.90227 30.8704 3.21027 30.727L36.9693 15.0303C38.1001 14.5045 38.5905 13.1617 38.0646 12.0311C37.5391 10.9005 36.1959 10.41 35.0655 10.9357V10.9359ZM35.0655 20.6122L1.30665 36.309C0.175721 36.8347 -0.314687 38.1773 0.211156 39.3079C0.593465 40.1307 1.40847 40.6144 2.2598 40.6144C2.57857 40.6144 2.90227 40.5467 3.21027 40.4033L36.9693 24.7066C38.1001 24.1808 38.5905 22.838 38.0646 21.7074C37.5391 20.5767 36.1959 20.0863 35.0655 20.612V20.6122ZM2.25965 11.7739C2.57917 11.7739 2.90376 11.7057 3.21251 11.5619L18.775 4.30492C19.9054 3.77803 20.394 2.43464 19.8671 1.30446C19.3399 0.174283 17.9967 -0.314181 16.8665 0.212409L1.30396 7.4694C0.173927 7.99644 -0.314986 9.33983 0.211904 10.4699C0.595109 11.2914 1.40952 11.7739 2.25965 11.7739V11.7739ZM35.0569 30.2115L23.1229 35.8215C22.7351 36.0039 22.4071 36.2929 22.1774 36.6547C21.9477 37.0165 21.8257 37.4362 21.8257 37.8648V49.1343H16.6113V40.7214C16.6113 39.4745 15.6005 38.4638 14.3536 38.4638C13.1065 38.4638 12.0958 39.4745 12.0958 40.7214V49.1343H8.85997C7.89919 49.1343 7.1724 50.0036 7.3427 50.9494L8.10433 55.1768C8.16839 55.5326 8.35543 55.8545 8.63278 56.0863C8.91012 56.3182 9.26012 56.4452 9.6216 56.4451H17.5432L9.15242 57.9687C8.85786 58.0222 8.5966 58.1905 8.42612 58.4366C8.25564 58.6827 8.18991 58.9864 8.24338 59.281C8.29065 59.5409 8.42753 59.7761 8.63022 59.9455C8.8329 60.115 9.08857 60.2081 9.35277 60.2086C9.41991 60.2086 9.48779 60.2026 9.55596 60.19L28.8007 56.6956C29.0884 56.6433 29.3444 56.481 29.5142 56.243C29.9128 56.0169 30.205 55.6191 30.279 55.1388L30.9319 50.9112C31.076 49.9771 30.3533 49.1343 29.4082 49.1343H26.3412V39.2984L36.978 34.298C38.1064 33.7675 38.5911 32.4226 38.0605 31.2942C37.5303 30.1663 36.1858 29.681 35.0567 30.2115H35.0569ZM28.3973 60.2265L9.15257 63.7207C8.85801 63.7741 8.59674 63.9424 8.42624 64.1884C8.25573 64.4345 8.18995 64.7382 8.24338 65.0328C8.29057 65.2928 8.42743 65.528 8.63013 65.6975C8.83283 65.8669 9.08855 65.96 9.35277 65.9604C9.41961 65.9604 9.48764 65.9544 9.55567 65.9419L28.8006 62.4477C28.9464 62.4213 29.0857 62.3663 29.2103 62.2861C29.3349 62.2058 29.4425 62.1018 29.5269 61.9799C29.6113 61.8581 29.6709 61.7208 29.7023 61.5759C29.7336 61.431 29.7361 61.2814 29.7096 61.1356C29.5982 60.5222 29.0112 60.1132 28.3973 60.2265V60.2265ZM28.3973 66.1936L9.15257 69.6873C9.00671 69.7138 8.86748 69.7687 8.74284 69.849C8.61821 69.9293 8.5106 70.0333 8.42618 70.1552C8.34175 70.277 8.28215 70.4143 8.25079 70.5592C8.21942 70.7041 8.2169 70.8538 8.24338 70.9996C8.29057 71.2596 8.42743 71.4948 8.63013 71.6643C8.83283 71.8338 9.08855 71.9268 9.35277 71.9272C9.41961 71.9272 9.48764 71.9212 9.55567 71.9087L28.8006 68.4145C28.9464 68.3881 29.0857 68.3332 29.2103 68.2529C29.3349 68.1726 29.4425 68.0686 29.5269 67.9468C29.6113 67.8249 29.6709 67.6876 29.7023 67.5428C29.7336 67.3979 29.7361 67.2482 29.7096 67.1024C29.5982 66.4891 29.0112 66.08 28.3973 66.1933V66.1936ZM26.0957 72.2122L11.7428 74.6852C11.4504 74.7388 11.1909 74.9056 11.0208 75.1493C10.8506 75.3931 10.7835 75.6941 10.8339 75.9871C10.8844 76.2801 11.0484 76.5413 11.2903 76.7141C11.5322 76.8868 11.8325 76.9572 12.126 76.9099L26.4791 74.4373C26.7742 74.3864 27.037 74.2204 27.2097 73.9758C27.3824 73.7312 27.4509 73.428 27.4001 73.1329C27.2942 72.519 26.7114 72.1086 26.0957 72.2122V72.2122Z" fill="#E54537"/>
</g>
<defs>
<clipPath id="clip0">
<rect width="38.2757" height="77" fill="white"/>
</clipPath>
</defs>
</svg>
