<svg width="79" height="77" viewBox="0 0 79 77" fill="none" xmlns="http://www.w3.org/2000/svg">
<g clip-path="url(#clip0)">
<path d="M72.0032 59.3425C67.7505 59.2365 64.4544 59.6618 61.6901 60.8312C60.8926 61.1499 59.6166 61.1502 59.5102 62.1604C59.9356 62.5857 59.9887 63.2769 60.3609 63.8614C60.9995 64.9244 62.1151 66.3599 63.1253 67.1046C64.2415 67.9549 65.3583 68.8053 66.5273 69.5496C68.6008 70.8256 70.9402 71.5697 72.9602 72.8457C74.1302 73.5894 75.2989 74.547 76.4686 75.3442C77.0534 75.7689 77.4253 76.4607 78.1699 76.7262V76.567C77.7974 76.0882 77.6911 75.3973 77.3192 74.8657C76.7882 74.334 76.2559 73.8555 75.7242 73.3238C74.1827 71.251 72.269 69.4433 70.1958 67.9549C68.4948 66.7853 64.7731 65.1906 64.0823 63.2234C64.0823 63.2234 64.0288 63.1705 63.9759 63.1174C65.1453 63.011 66.5273 62.5857 67.6441 62.2667C69.4515 61.7879 71.0994 61.8945 72.9602 61.416C73.8105 61.2034 74.6612 60.9375 75.5116 60.6717V60.1935C74.5552 59.2365 73.864 57.9608 72.8539 57.057C70.1427 54.7173 67.1653 52.4318 64.0823 50.5181C62.4341 49.4548 60.3074 48.7636 58.5532 47.8601C57.9159 47.5408 56.8522 47.3816 56.4804 46.8499C55.523 45.6805 54.9914 44.139 54.3005 42.7567C52.7593 39.8325 51.2703 36.59 49.9412 33.5069C48.9848 31.4334 48.3999 29.3599 47.2303 27.4465C41.7547 18.4091 35.8007 12.9335 26.6572 7.564C24.69 6.44781 22.351 5.96931 19.8525 5.38478C18.5239 5.33131 17.1945 5.22528 15.8656 5.17181C15.0149 4.79964 14.1643 3.78978 13.4199 3.31128C10.3904 1.39728 2.57516 -2.7488 0.342468 2.72675C-1.09303 6.18198 2.46913 9.58403 3.69136 11.3388C4.5958 12.5614 5.76486 13.9434 6.40286 15.3257C6.77502 16.2289 6.88105 17.1866 7.25322 18.1433C8.10419 20.4817 8.90108 23.0871 10.0179 25.267C10.6027 26.3832 11.2404 27.5525 11.9847 28.5627C12.4101 29.1472 13.1541 29.4134 13.3139 30.3701C12.5699 31.4334 12.5164 33.0284 12.0908 34.3573C10.1771 40.3645 10.9217 47.8069 13.6326 52.2191C14.483 53.5477 16.5033 56.4725 19.2145 55.3556C21.607 54.399 21.0753 51.3688 21.7659 48.7107C21.926 48.0721 21.8197 47.6474 22.1384 47.2221V47.3287C22.8827 48.8168 23.6267 50.2526 24.3179 51.7409C25.966 54.3455 28.8364 57.057 31.2286 58.8646C32.5049 59.821 33.5148 61.4692 35.1098 62.054V61.8942H35.0032C34.6842 61.4157 34.2057 61.2034 33.7806 60.8309C32.8239 59.8745 31.7603 58.7048 31.0163 57.6415C28.7839 54.6642 26.8164 51.3685 25.0622 47.9661C24.2119 46.3185 23.4672 44.5109 22.7764 42.863C22.4571 42.2244 22.4571 41.268 21.9257 40.9493C21.1282 42.1187 19.9588 43.1288 19.374 44.564C18.3644 46.8499 18.2578 49.6674 17.8856 52.591C17.673 52.6448 17.779 52.591 17.6727 52.6979C15.9719 52.272 15.3871 50.5181 14.7488 49.0294C13.1538 45.2552 12.888 39.1948 14.2706 34.8358C14.6428 33.7193 16.2378 30.2109 15.5998 29.1475C15.2808 28.1374 14.2171 27.5525 13.6326 26.7553C12.9417 25.7452 12.1971 24.4698 11.7189 23.353C10.4429 20.376 9.80491 17.0799 8.42288 14.1029C7.78488 12.7206 6.669 11.2857 5.76486 10.0097C4.755 8.57448 3.6385 7.564 2.841 5.86298C2.57547 5.27845 2.203 4.32145 2.62833 3.68345C2.73466 3.25812 2.94702 3.09892 3.37266 2.99259C4.06383 2.40745 6.031 3.15178 6.72155 3.47078C8.68872 4.26767 10.3366 5.01261 11.9847 6.12881C12.7288 6.66048 13.5263 7.67064 14.483 7.93648H15.5995C17.3008 8.30834 19.2142 8.04281 20.8092 8.521C23.627 9.42453 26.1784 10.7537 28.4646 12.1892C35.4288 16.6014 41.1696 22.8745 45.0507 30.3701C45.6887 31.5923 45.9543 32.7094 46.5391 33.9848C47.6559 36.59 49.0379 39.248 50.1538 41.7997C51.2703 44.2979 52.3334 46.8499 53.9284 48.9234C54.7259 50.0393 57.9152 50.6244 59.3507 51.2093C60.4141 51.6875 62.0622 52.1131 63.0189 52.6976C64.8263 53.8135 66.6337 55.0901 68.335 56.3123C69.1857 56.9503 71.8434 58.2795 72.0032 59.3425V59.3425Z" fill="#00546B"/>
<path d="M17.7791 13.1455C16.8755 13.1455 16.2379 13.2525 15.5999 13.4116V13.518H15.7062C16.1318 14.3686 16.8755 14.9535 17.4069 15.6975C17.8325 16.5479 18.2044 17.3988 18.63 18.2495C18.6829 18.196 18.7361 18.1432 18.7361 18.1432C19.4807 17.6112 19.8526 16.7608 19.8526 15.4848C19.5336 15.113 19.4804 14.7408 19.2146 14.3686C18.8959 13.8367 18.2044 13.5711 17.7791 13.1455V13.1455Z" fill="#00546B"/>
</g>
<defs>
<clipPath id="clip0">
<rect width="78.2222" height="77" fill="white"/>
</clipPath>
</defs>
</svg>
