<svg width="77" height="77" viewBox="0 0 77 77" fill="none" xmlns="http://www.w3.org/2000/svg">
<g clip-path="url(#clip0)">
<path d="M60.429 0.961914H16.571C12.1761 0.961914 7.96122 2.70779 4.85355 5.81546C1.74587 8.92313 0 13.138 0 17.533L0 59.4659C0 63.8608 1.74587 68.0757 4.85355 71.1834C7.96122 74.2911 12.1761 76.0369 16.571 76.0369H60.429C64.8239 76.0369 69.0388 74.2911 72.1465 71.1834C75.2541 68.0757 77 63.8608 77 59.4659V17.533C77 13.138 75.2541 8.92313 72.1465 5.81546C69.0388 2.70779 64.8239 0.961914 60.429 0.961914V0.961914ZM40.8389 53.8705H33.5014C32.9881 53.8705 32.6223 53.8513 32.417 53.508C31.7272 52.1637 31.0374 50.829 30.3508 49.504C29.6409 48.1407 28.9093 46.7887 28.1563 45.4487C27.374 44.0616 26.6072 42.6659 25.856 41.2618H25.8046C25.1092 42.649 24.3948 44.0266 23.6615 45.3941C22.9235 46.7705 22.1888 48.1405 21.467 49.5008C20.7458 50.8622 20.0067 52.2141 19.25 53.5561C19.1088 53.8673 18.8682 53.8994 18.5217 53.8994H11.4473C11.3094 53.8994 11.2324 53.954 11.2163 53.816C11.1978 53.6898 11.2251 53.5612 11.2933 53.4535L21.2616 37.0749L11.55 20.6547C11.4441 20.5167 11.4281 20.4044 11.4987 20.3114C11.5366 20.2668 11.5847 20.232 11.6388 20.2096C11.6929 20.1873 11.7515 20.1782 11.8099 20.183H19.0928C19.2515 20.1764 19.4099 20.2027 19.558 20.26C19.681 20.3307 19.7863 20.4283 19.866 20.5456C20.4852 21.9252 21.175 23.3015 21.9322 24.6779C22.6893 26.0543 23.4561 27.4146 24.2293 28.7589C25.0025 30.1032 25.718 31.4635 26.3725 32.8399H26.4238C27.1072 31.4283 27.8034 30.0519 28.5157 28.7076C29.2279 27.3633 29.9498 26.0126 30.6845 24.6522C31.4256 23.2887 32.1379 21.9348 32.8277 20.5969C32.866 20.4679 32.9367 20.3508 33.033 20.2568C33.1611 20.1931 33.3044 20.1664 33.4469 20.1798H40.2133C40.2894 20.1613 40.3697 20.1735 40.437 20.2137C40.5042 20.2539 40.5529 20.319 40.5726 20.3948C40.5861 20.4493 40.5839 20.5066 40.5663 20.5599C40.5487 20.6133 40.5164 20.6606 40.4731 20.6964L40.4763 20.7092L30.8674 36.568L41.1469 53.4085C41.2142 53.5273 41.2303 53.6652 41.1982 53.7968C41.1661 53.9123 41.0474 53.8353 40.8389 53.8705V53.8705ZM65.4821 52.523C63.8028 53.2225 62.0541 53.742 60.2653 54.0727C58.6283 54.3767 56.9671 54.5324 55.302 54.5379C52.9253 54.5728 50.5704 54.0797 48.4073 53.0941C46.3921 52.161 44.7073 50.6384 43.5756 48.7276C42.3318 46.4982 41.7237 43.9702 41.8174 41.419C41.7983 39.0482 42.4047 36.7142 43.5756 34.6526C44.7818 32.5524 46.5553 30.8345 48.6929 29.6957C51.3941 28.2842 54.4337 27.6489 57.4741 27.8606C57.75 27.8766 58.0772 27.9023 58.4558 27.9376V17.7607C58.4558 17.5201 58.5585 17.3982 58.767 17.3982H65.2735C65.3458 17.3881 65.4192 17.4071 65.4775 17.451C65.5359 17.4949 65.5744 17.5601 65.5847 17.6324C65.588 17.658 65.588 17.6838 65.5847 17.7094V48.2431C65.5847 48.8303 65.6104 49.4655 65.6617 50.1553C65.7131 50.8419 65.758 51.4611 65.7901 52.0129C65.7968 52.1192 65.7709 52.225 65.7158 52.3161C65.6608 52.4073 65.5793 52.4795 65.4821 52.523V52.523ZM57.5992 33.8762C57.888 33.9051 58.1735 33.9564 58.4526 34.0302V48.1308C58.0828 48.2409 57.7019 48.3097 57.3169 48.3362C56.8697 48.3722 56.4212 48.3893 55.9726 48.3875C55.0686 48.3917 54.1697 48.252 53.3097 47.9736C52.4965 47.7176 51.754 47.2761 51.1408 46.6839C50.5012 46.0393 50.0077 45.2646 49.6939 44.4124C49.3094 43.353 49.1255 42.2313 49.1517 41.1046C49.084 39.6685 49.4532 38.2457 50.2104 37.0236C50.8938 36.0098 51.8274 35.1916 52.9215 34.6462C54.0444 34.0912 55.2828 33.8056 56.5372 33.8185C56.8934 33.8249 57.2463 33.8409 57.5992 33.8762Z" fill="#A259FF"/>
</g>
<defs>
<clipPath id="clip0">
<rect width="77" height="77" fill="white"/>
</clipPath>
</defs>
</svg>
